# xmcd
# 
# Track frame offsets:
#     150
#     15059
#     32636
#     46897
#     66320
#     84825
#     99303
#     115106
#     129214
#     145458
# 
# Disc length: 2234
# 
# Revision: 5
# Processed by: cddbd v1.5.2PL0 Copyright (c) Steve Scherf et al.
# Submitted via: fre:ac v1.0.27
# 
DISCID=7008b80a
DTITLE=Lorde - Pure Heroine
DYEAR=2013
DGENRE=Electro Alternative Pop
TTITLE0=Tennis Court
TTITLE1=400 Lux
TTITLE2=Royals
TTITLE3=Ribs
TTITLE4=Buzzcut Season
TTITLE5=Team
TTITLE6=Glory and Gore
TTITLE7=Still Sane
TTITLE8=White Teeth Teens
TTITLE9=A World Alone
EXTD=Republic Records\nLava Records\nUniversal Music New Zealand Ltd.\nUniversal Music Distribution
EXTT0=
EXTT1=
EXTT2=
EXTT3=
EXTT4=
EXTT5=
EXTT6=
EXTT7=
EXTT8=
EXTT9=
PLAYORDER=
